<svg width="32" height="25" viewBox="0 0 32 25" fill="none" xmlns="http://www.w3.org/2000/svg">
<mask id="mask0_3208_23349" style="mask-type:luminance" maskUnits="userSpaceOnUse" x="0" y="0" width="32" height="25">
<path d="M32 0H0V24.7891H32V0Z" fill="white"/>
</mask>
<g mask="url(#mask0_3208_23349)">
<path d="M27.0894 2.20843C25.0498 1.27258 22.8626 0.583083 20.5759 0.18818C20.5342 0.180558 20.4926 0.199605 20.4712 0.237699C20.1899 0.737992 19.8783 1.39067 19.6601 1.90366C17.2005 1.53543 14.7536 1.53543 12.3444 1.90366C12.1262 1.37926 11.8033 0.737992 11.5208 0.237699C11.4993 0.200876 11.4577 0.181829 11.4161 0.18818C9.13055 0.581821 6.94341 1.27132 4.90258 2.20843C4.88491 2.21605 4.86977 2.22876 4.85972 2.24526C0.711189 8.44315 -0.425267 14.4887 0.13224 20.4593C0.134763 20.4885 0.15116 20.5165 0.173864 20.5342C2.91095 22.5443 5.56228 23.7646 8.16437 24.5734C8.20602 24.5861 8.25014 24.5709 8.27664 24.5366C8.89217 23.696 9.44086 22.8097 9.9113 21.8777C9.93906 21.8231 9.91256 21.7583 9.85582 21.7367C8.98551 21.4066 8.1568 21.004 7.35964 20.5469C7.29659 20.5101 7.29154 20.4199 7.34954 20.3767C7.5173 20.251 7.68509 20.1202 7.84527 19.9882C7.87425 19.9641 7.91464 19.959 7.94871 19.9742C13.1857 22.3653 18.8554 22.3653 24.0306 19.9742C24.0647 19.9577 24.1051 19.9628 24.1353 19.9869C24.2955 20.119 24.4633 20.251 24.6323 20.3767C24.6903 20.4199 24.6865 20.5101 24.6235 20.5469C23.8263 21.0129 22.9976 21.4066 22.126 21.7355C22.0693 21.757 22.044 21.8231 22.0718 21.8777C22.5523 22.8084 23.101 23.6947 23.7052 24.5354C23.7304 24.5709 23.7758 24.5861 23.8175 24.5734C26.4322 23.7646 29.0835 22.5443 31.8206 20.5342C31.8446 20.5165 31.8597 20.4898 31.8622 20.4606C32.5294 13.5579 30.7447 7.56192 27.131 2.24652C27.1221 2.22876 27.107 2.21605 27.0894 2.20843ZM10.6934 16.8238C9.11666 16.8238 7.81751 15.3763 7.81751 13.5986C7.81751 11.8208 9.09147 10.3733 10.6934 10.3733C12.3078 10.3733 13.5944 11.8335 13.5692 13.5986C13.5692 15.3763 12.2952 16.8238 10.6934 16.8238ZM21.3263 16.8238C19.7497 16.8238 18.4505 15.3763 18.4505 13.5986C18.4505 11.8208 19.7244 10.3733 21.3263 10.3733C22.9408 10.3733 24.2274 11.8335 24.2022 13.5986C24.2022 15.3763 22.9408 16.8238 21.3263 16.8238Z" fill="#5865F2"/>
</g>
</svg>
