<svg width="16" height="16" viewBox="0 0 16 16" fill="none" xmlns="http://www.w3.org/2000/svg">
<g clip-path="url(#clip0_4181_15543)">
<path d="M11.3333 2.0015C11.5083 1.82641 11.7162 1.68751 11.945 1.59275C12.1738 1.49799 12.419 1.44922 12.6666 1.44922C12.9142 1.44922 13.1594 1.49799 13.3882 1.59275C13.617 1.68751 13.8248 1.82641 13.9999 2.0015C14.175 2.1766 14.3139 2.38447 14.4087 2.61324C14.5034 2.84202 14.5522 3.08721 14.5522 3.33484C14.5522 3.58246 14.5034 3.82766 14.4087 4.05643C14.3139 4.28521 14.175 4.49307 13.9999 4.66817L4.99992 13.6682L1.33325 14.6682L2.33325 11.0015L11.3333 2.0015Z" stroke="#525A6B" stroke-width="2" stroke-linecap="round" stroke-linejoin="round"/>
</g>
<defs>
<clipPath id="clip0_4181_15543">
<rect width="16" height="16" fill="white"/>
</clipPath>
</defs>
</svg>
