<svg width="24" height="24" viewBox="0 0 24 24" fill="none" xmlns="http://www.w3.org/2000/svg">
<path d="M7.34299 18.0412L5.89706 16.5952C5.50107 16.1992 5.35708 15.6232 5.53707 15.0832C5.67507 14.6632 5.86706 14.1232 6.08905 13.4992H1.12727C0.725291 13.4992 0.347308 13.2832 0.149316 12.9292C-0.0546743 12.5752 -0.0486743 12.1492 0.161316 11.8012L2.62121 7.65521C3.23318 6.62921 4.33113 5.99921 5.52508 5.99921H9.3829C9.4969 5.81321 9.61089 5.63921 9.71889 5.47121C13.5527 -0.192774 19.2705 -0.378774 22.6843 0.245225C23.2303 0.341225 23.6503 0.767224 23.7523 1.31322C24.3822 4.72722 24.1902 10.4452 18.5325 14.2852C18.3705 14.3992 18.1905 14.5072 18.0045 14.6212V18.4792C18.0045 19.6672 17.3745 20.7772 16.3486 21.3832L12.2028 23.8432C11.8548 24.0472 11.4228 24.0532 11.0748 23.8552C10.7208 23.6512 10.5048 23.2852 10.5048 22.8772V17.8552C9.84488 18.0832 9.26891 18.2752 8.83093 18.4132C8.30295 18.5812 7.73298 18.4372 7.34299 18.0472V18.0412ZM17.9985 7.87721C18.4965 7.87721 18.9705 7.67921 19.3245 7.32521C19.6784 6.97121 19.8764 6.49721 19.8764 5.99921C19.8764 5.50121 19.6784 5.02721 19.3245 4.67322C18.9705 4.31922 18.4965 4.12122 17.9985 4.12122C17.5005 4.12122 17.0266 4.31922 16.6726 4.67322C16.3186 5.02721 16.1206 5.50121 16.1206 5.99921C16.1206 6.49721 16.3186 6.97121 16.6726 7.32521C17.0266 7.67921 17.5005 7.87721 17.9985 7.87721Z" fill="#D4D6DA"/>
</svg>
