<svg width="24" height="24" viewBox="0 0 24 24" fill="none" xmlns="http://www.w3.org/2000/svg">
<path d="M23.0702 6.921L13.4546 0.423C12.5609 -0.141 11.4211 -0.141 10.5274 0.423L0.923769 6.921C0.347913 7.287 0 7.917 0 8.601V20.769C0 22.557 1.44564 24.003 3.23319 23.997H8.16996C8.66783 23.985 9.06373 23.583 9.06373 23.091V16.809C9.06373 16.455 9.34566 16.173 9.69958 16.173H14.2944C14.6423 16.173 14.9303 16.455 14.9303 16.809V23.073C14.9303 23.571 15.3322 23.973 15.83 23.973H20.7788C22.5604 23.961 24 22.515 24 20.733V8.601C24 7.917 23.6521 7.281 23.0762 6.921H23.0702Z" fill="white"/>
</svg>
