<svg width="32" height="32" viewBox="0 0 32 32" fill="none" xmlns="http://www.w3.org/2000/svg">
<path d="M16 32C24.8366 32 32 24.8366 32 16C32 7.16344 24.8366 0 16 0C7.16344 0 0 7.16344 0 16C0 24.8366 7.16344 32 16 32Z" fill="url(#paint0_linear_3208_23276)"/>
<path fill-rule="evenodd" clip-rule="evenodd" d="M7.22749 15.8252C11.8879 13.7816 15.0032 12.4608 16.5733 11.8128C21.0094 9.96854 21.9315 9.64455 22.5297 9.61963C22.6543 9.61963 22.9533 9.64455 23.1527 9.79408C23.3023 9.91869 23.3521 10.0931 23.377 10.2178C23.4019 10.3424 23.4269 10.6165 23.4019 10.8408C23.1527 13.3579 22.1309 19.5137 21.5826 22.3299C21.3583 23.5262 20.9097 23.9249 20.4861 23.9748C19.5639 24.0495 18.8412 23.3517 17.944 22.7785C16.5484 21.8564 15.7509 21.2832 14.3801 20.386C12.81 19.3393 13.8319 18.766 14.729 17.8439C14.9533 17.5947 19.0655 13.8813 19.1403 13.5324C19.1403 13.4826 19.1652 13.333 19.0655 13.2583C18.9658 13.1835 18.8412 13.2084 18.7415 13.2333C18.592 13.2583 16.349 14.7536 11.9876 17.6944C11.3396 18.143 10.7664 18.3424 10.2431 18.3424C9.66986 18.3424 8.57328 18.0184 7.75085 17.7442C6.75397 17.4203 5.95646 17.2458 6.03123 16.6975C6.08107 16.4234 6.47983 16.1243 7.22749 15.8252Z" fill="white"/>
<defs>
<linearGradient id="paint0_linear_3208_23276" x1="0" y1="15.9884" x2="31.9768" y2="15.9884" gradientUnits="userSpaceOnUse">
<stop stop-color="#2AABEE"/>
<stop offset="1" stop-color="#229ED9"/>
</linearGradient>
</defs>
</svg>
