<svg width="48" height="48" viewBox="0 0 48 48" fill="none" xmlns="http://www.w3.org/2000/svg">
<g clip-path="url(#clip0_3099_79593)">
<path d="M39.9249 15.5391C39.9493 15.9122 39.9493 16.2853 39.9493 16.6619C39.9493 28.1357 31.6902 41.3685 16.5881 41.3685V41.3617C12.1268 41.3685 7.7583 40.0171 4.00269 37.4688C4.65138 37.5514 5.30333 37.5926 5.9569 37.5944C9.65399 37.5978 13.2454 36.2859 16.154 33.87C12.6406 33.7996 9.55969 31.3769 8.48341 27.84C9.71414 28.091 10.9823 28.0394 12.1902 27.6904C8.35985 26.8719 5.6041 23.3127 5.6041 19.1791C5.6041 19.1413 5.6041 19.1052 5.6041 19.0691C6.74542 19.7414 8.0233 20.1145 9.33045 20.1558C5.72279 17.6059 4.61074 12.5301 6.78932 8.5616C10.9579 13.9864 17.1083 17.2843 23.7107 17.6334C23.049 14.6175 23.953 11.4571 26.086 9.33706C29.3929 6.04949 34.5939 6.218 37.7024 9.71362C39.5412 9.33019 41.3036 8.61662 42.9164 7.60559C42.3034 9.61561 41.0207 11.323 39.3071 12.408C40.9345 12.2051 42.5245 11.7443 44.0219 11.041C42.9196 12.788 41.5312 14.3097 39.9249 15.5391Z" fill="#1D9BF0"/>
</g>
<defs>
<clipPath id="clip0_3099_79593">
<rect width="40.32" height="35.0766" fill="white" transform="translate(3.84009 6.71997)"/>
</clipPath>
</defs>
</svg>
