<svg width="32" height="28" viewBox="0 0 32 28" fill="none" xmlns="http://www.w3.org/2000/svg">
<path d="M28.6388 7.33759C28.6581 7.63371 28.6581 7.92984 28.6581 8.22869C28.6581 17.3349 22.1033 27.8371 10.1175 27.8371V27.8316C6.57688 27.8371 3.10979 26.7645 0.12915 24.7421C0.643988 24.8076 1.16141 24.8404 1.68011 24.8417C4.6143 24.8445 7.46461 23.8032 9.77299 21.8859C6.98462 21.83 4.53946 19.9072 3.68527 17.1002C4.66204 17.2994 5.66849 17.2585 6.6272 16.9814C3.58721 16.3319 1.40011 13.5071 1.40011 10.2265C1.40011 10.1965 1.40011 10.1678 1.40011 10.1392C2.30592 10.6727 3.32011 10.9689 4.35753 11.0016C1.49431 8.97787 0.61173 4.94948 2.34076 1.79991C5.64914 6.10532 10.5304 8.72269 15.7704 8.99971C15.2452 6.60614 15.9627 4.09795 17.6556 2.41536C20.2801 -0.193819 24.4078 -0.0600847 26.8749 2.71421C28.3342 2.4099 29.7329 1.84358 31.0129 1.04117C30.5265 2.63643 29.5084 3.99151 28.1484 4.85259C29.44 4.69157 30.702 4.32584 31.8904 3.76771C31.0155 5.15417 29.9136 6.36187 28.6388 7.33759Z" fill="#1D9BF0"/>
</svg>
